<svg xmlns="http://www.w3.org/2000/svg" width="1280" height="720" viewBox="0 0 1280 720" role="img">
  <defs>
    <linearGradient id="bg" x1="0" y1="0" x2="1" y2="1"><stop offset="0" stop-color="#F7F4EC"/><stop offset="1" stop-color="#EEF3FF"/></linearGradient>
    <filter id="shadow" x="-20%" y="-20%" width="140%" height="140%"><feDropShadow dx="0" dy="18" stdDeviation="18" flood-color="#080A0F" flood-opacity="0.14"/></filter>
    <style>
      .title{font:900 58px Inter,Arial,sans-serif;fill:#080A0F}
      .h2{font:800 34px Inter,Arial,sans-serif;fill:#080A0F}
      .body{font:600 22px Inter,Arial,sans-serif;fill:#6B6258}
      .small{font:700 18px Inter,Arial,sans-serif;fill:#6B6258}
      .pill{font:800 17px Inter,Arial,sans-serif;letter-spacing:.12em;fill:#0F8F72}
    </style>
  </defs>
  <rect width="100%" height="100%" fill="url(#bg)"/>
  <circle cx="1120" cy="100" r="190" fill="#345CFF" opacity=".08"/>
  <circle cx="120" cy="660" r="260" fill="#0F8F72" opacity=".08"/>
  
  <text x="70" y="78" class="pill">PREDICTCARE.AI · HEALTHFOUNDEROS</text>
  <text x="70" y="180" class="title">Healthcare AI</text>
  <text x="70" y="245" class="title">Needs a</text>
  <text x="70" y="322" class="title" fill="#345CFF">Single Brain</text>
  <text x="74" y="385" class="body">From scattered tools to governed workflows</text>
  <text x="74" y="425" class="body">for growth, operations, compliance, and execution.</text>
  <rect x="75" y="500" width="400" height="68" rx="34" fill="#FFD22E" filter="url(#shadow)"/>
  <text x="110" y="543" font-family="Inter,Arial" font-size="24" font-weight="900" fill="#080A0F">Start with one workflow →</text>
  <g transform="translate(745 130)" filter="url(#shadow)">
    <rect width="420" height="420" rx="60" fill="white"/>
    <circle cx="210" cy="210" r="120" fill="none" stroke="#345CFF" stroke-width="14"/>
    <circle cx="210" cy="210" r="44" fill="#FFD22E"/>
    <path d="M210 90 V40 M210 380 V330 M90 210 H40 M380 210 H330 M125 125 L80 80 M295 125 L340 80 M125 295 L80 340 M295 295 L340 340" stroke="#0F8F72" stroke-width="12" stroke-linecap="round"/>
    <text x="94" y="474" class="h2">Governed Intelligence</text>
  </g>

</svg>